<svg width="46" height="22" viewBox="0 0 46 22" fill="none" xmlns="http://www.w3.org/2000/svg">
  <path
    d="M2.60156 13.6953C2.46094 13.7578 2.30078 13.7891 2.12109 13.7891C1.94922 13.7891 1.75391 13.6641 1.53516 13.4141C1.32422 13.1641 1.13281 12.8516 0.960938 12.4766C0.585938 11.6328 0.398438 10.8086 0.398438 10.0039C0.398438 9.49609 0.496094 9.09375 0.691406 8.79688C0.691406 8.79688 1.05469 8.39844 1.78125 7.60156C2.125 7.21094 2.49609 6.86719 2.89453 6.57031C7.50391 3.21094 12.1719 1.40625 16.8984 1.15625C17.5625 1.11719 18.0781 1.09766 18.4453 1.09766C18.8125 1.09766 19.1094 1.15234 19.3359 1.26172C19.5703 1.36328 19.793 1.5 20.0039 1.67188C20.2148 1.83594 20.4141 2.02344 20.6016 2.23438C20.7891 2.4375 20.9531 2.64063 21.0938 2.84375C21.3906 3.25781 21.5391 3.55078 21.5391 3.72266C21.5391 3.89453 21.5039 4.09766 21.4336 4.33203C21.3633 4.55859 21.2812 4.80859 21.1875 5.08203C21.0938 5.34766 20.9922 5.61328 20.8828 5.87891L20.625 6.55859C19.4609 9.56641 18.0781 12.3906 16.4766 15.0312C15.9453 15.9141 15.5 16.5938 15.1406 17.0703C14.7891 17.5547 14.4922 17.9414 14.25 18.2305C14.0156 18.5195 13.7617 18.8047 13.4883 19.0859C13.2148 19.3672 12.9219 19.6328 12.6094 19.8828C12.2969 20.1406 11.9766 20.3672 11.6484 20.5625C10.9297 20.9844 10.2188 21.1953 9.51562 21.1953C9.04688 21.1953 8.51562 20.9492 7.92188 20.457C7.29688 19.9336 6.98438 19.4023 6.98438 18.8633C6.98438 17.9883 7.83984 16.7109 9.55078 15.0312C10.4492 14.1484 11.2656 13.4336 12 12.8867C12.7344 12.332 13.2656 11.957 13.5938 11.7617C14.8203 9.44141 15.5742 7.98828 15.8555 7.40234L16.5117 6.00781C16.8398 5.28125 17.0039 4.84766 17.0039 4.70703C17.0039 4.35547 16.8164 4.17969 16.4414 4.17969C16.0664 4.17969 15.5859 4.26953 15 4.44922C14.4141 4.62891 13.7852 4.875 13.1133 5.1875C12.4414 5.49219 11.7422 5.85156 11.0156 6.26562C10.2969 6.67188 9.58984 7.10547 8.89453 7.56641C8.20703 8.01953 7.54688 8.48828 6.91406 8.97266C6.28906 9.45703 5.73438 9.92578 5.25 10.3789C4.17969 11.3711 3.59375 12.1367 3.49219 12.6758C3.39062 13.1602 3.09375 13.5 2.60156 13.6953ZM24.9023 16.6133C24.6055 16.332 24.3828 16.0156 24.2344 15.6641C24.0859 15.3047 24.0117 14.9961 24.0117 14.7383C24.0117 14.4727 24.082 14.1602 24.2227 13.8008C24.3633 13.4414 24.5547 13.0273 24.7969 12.5586C25.0391 12.082 25.3203 11.5664 25.6406 11.0117C25.9609 10.4492 26.3047 9.88281 26.6719 9.3125L27.7734 7.61328C28.1562 7.05859 28.5312 6.54297 28.8984 6.06641C27.3359 6.56641 26.1758 7.05469 25.418 7.53125C24.668 8 24.0898 8.34375 23.6836 8.5625C23.2773 8.78125 22.9414 8.89062 22.6758 8.89062C22.2383 8.89062 22.0195 8.61719 22.0195 8.07031C22.0195 7.28906 22.4258 6.32812 23.2383 5.1875C24.082 4.00781 24.9531 3.27734 25.8516 2.99609C26.7578 2.71484 27.7656 2.44922 28.875 2.19922C29.9922 1.94141 31.1523 1.71875 32.3555 1.53125C34.9648 1.125 37.3906 0.921875 39.6328 0.921875C42.1953 0.921875 43.832 1.16406 44.543 1.64844C45.1758 2.07813 45.6055 2.67187 45.832 3.42969C45.9414 3.79688 45.9961 4.19141 45.9961 4.61328C45.9961 5.03516 45.7891 5.47656 45.375 5.9375C44.9688 6.39062 44.4258 6.82031 43.7461 7.22656C42.4648 8.00781 40.7852 8.71094 38.707 9.33594C39.8867 9.5625 40.7031 9.82422 41.1562 10.1211C41.6172 10.4102 41.9414 10.7031 42.1289 11C42.3164 11.2891 42.4102 11.6602 42.4102 12.1133C42.4102 12.5586 42.2148 13.0195 41.8242 13.4961C41.4336 13.9727 40.8906 14.418 40.1953 14.832C39.5078 15.2461 38.6914 15.6211 37.7461 15.957C36.8086 16.293 35.7891 16.5781 34.6875 16.8125C32.3906 17.3125 30 17.5625 27.5156 17.5625C26.4375 17.5625 25.5664 17.2461 24.9023 16.6133ZM31.4297 7.8125C30.2578 9.84375 29.6719 11.25 29.6719 12.0312C29.6719 12.3906 29.8594 12.7266 30.2344 13.0391C30.5859 13.3359 30.9531 13.4844 31.3359 13.4844C31.7188 13.4844 32.1406 13.4688 32.6016 13.4375C33.0625 13.3984 33.5352 13.3477 34.0195 13.2852C34.5039 13.2227 34.9805 13.1484 35.4492 13.0625C35.918 12.9766 36.3359 12.8789 36.7031 12.7695C37.5156 12.5273 37.9219 12.2812 37.9219 12.0312C37.9219 11.5781 37.293 11.2031 36.0352 10.9062C35.0117 10.6719 34.0352 10.5547 33.1055 10.5547C32.7461 10.5547 32.4883 10.4844 32.332 10.3438C32.1758 10.1953 32.0977 10.0273 32.0977 9.83984C32.0977 9.64453 32.1914 9.44531 32.3789 9.24219C32.5742 9.03125 32.8359 8.85938 33.1641 8.72656C35.8203 8.0625 38.0391 7.31641 39.8203 6.48828C40.6953 6.08203 41.1328 5.77344 41.1328 5.5625C41.1328 5.25781 41.043 5.01172 40.8633 4.82422C40.543 4.48828 40.1875 4.32031 39.7969 4.32031C39.4062 4.32031 38.9609 4.33594 38.4609 4.36719C37.9609 4.39844 37.4219 4.44531 36.8438 4.50781C35.5703 4.63281 34.3086 4.8125 33.0586 5.04688C32.8789 5.41406 32.6406 5.82812 32.3438 6.28906L31.4297 7.8125Z"
    fill="currentColor" />
</svg>