<?xml version="1.0" encoding="utf-8"?>
<svg xmlns="http://www.w3.org/2000/svg" fill="none" viewBox="0 0 106 101">
<path d="M31.0084 41.4121H44.3934C41.0511 39.3212 39.7997 36.3908 38.1207 30.9576L33.0993 12.3454C30.8025 3.98175 28.9175 0.00585938 19.7144 0.00585938H0.484375V5.0272H3.20889C8.84799 5.0272 9.4816 7.1181 11.1607 13.3908L15.5484 29.7062C17.8452 37.658 21.4093 41.4121 31.0243 41.4121H31.0084ZM61.976 41.4121H75.3451C84.9601 41.4121 88.3024 37.6422 90.6151 29.7062L95.0028 13.3908C96.6818 7.1181 97.5055 5.0272 102.955 5.0272H105.679V0.00585938H86.655C77.2459 0.00585938 75.361 3.77582 73.2701 12.3454L68.2487 30.9576C66.5696 36.5967 65.3183 39.3212 61.976 41.4121ZM44.3934 58.963H61.9765L61.976 41.4121H44.3934V58.963ZM0.484375 100.369H19.7144C28.9175 100.369 30.8025 96.3934 33.0993 88.0298L38.1207 69.4176C39.7997 63.9844 41.0511 61.054 44.3934 58.963H31.0084C21.3934 58.963 17.8294 62.733 15.5326 70.6689L11.1448 86.9843C9.46576 93.257 8.848 95.348 3.19305 95.348H0.484375V100.369ZM86.6233 100.369H105.647V95.348H102.923C97.4897 95.348 96.6502 93.257 94.9711 86.9843L90.5834 70.6689C88.2865 62.7172 84.9443 58.963 75.3134 58.963H61.9765C65.3188 61.054 66.5221 63.7785 68.2012 69.4176L73.2225 88.0298C75.3134 96.5993 77.1984 100.369 86.6075 100.369H86.6233Z" fill="currentColor"/>
</svg>